# xmcd
#
# Track frame offsets: 
#        150
#        5375
#        32165
#        59732
#        86542
#        107720
#        134938
#        166661
#        195923
#        215647
#
# Disc length: 3242 seconds
#
# Revision: 0
# Processed by: cddbd v1.5.2PL0 Copyright (c) Steve Scherf et al.
# Submitted via: ExactAudioCopy v1.0b3
#
DISCID=890ca80a
DTITLE=Phoenix Rising - Eternal Crusade
DYEAR=2000
DGENRE=Metal
TTITLE0=Intro . Eternal Crusade
TTITLE1=Hail To The Ancient
TTITLE2=Awake The Spirit Within
TTITLE3=Through The Golden Gates Of Magic
TTITLE4=Dragonlord
TTITLE5=Cursed By The Shadowqueen
TTITLE6=Souls On A Voyage
TTITLE7=Hollow Be Thy Name
TTITLE8=Where Even Shadows Fear To Tread
TTITLE9=Out In The Endless Space
EXTD=
EXTT0=
EXTT1=
EXTT2=
EXTT3=
EXTT4=
EXTT5=
EXTT6=
EXTT7=
EXTT8=
EXTT9=
PLAYORDER=
